<mxfile host="app.diagrams.net" modified="2020-10-07T14:45:36.782Z" agent="5.0 (X11; Linux x86_64) AppleWebKit/537.36 (KHTML, like Gecko) Chrome/85.0.4183.121 Safari/537.36" etag="jFA_55pccDe8XqKE05F_" version="13.7.7" type="github">
  <diagram id="VGHOmNm0VlgGREQrYbSh" name="Page-1">
    <mxGraphModel dx="1422" dy="833" grid="1" gridSize="10" guides="1" tooltips="1" connect="1" arrows="1" fold="1" page="1" pageScale="1" pageWidth="2000" pageHeight="2000" math="0" shadow="0">
      <root>
        <mxCell id="0" />
        <mxCell id="1" parent="0" />
        <mxCell id="q7JV8eypqxYTwoy2jVLA-1" value="load settings to settings object" style="rounded=0;whiteSpace=wrap;html=1;" parent="1" vertex="1">
          <mxGeometry x="10" y="10" width="120" height="60" as="geometry" />
        </mxCell>
        <mxCell id="q7JV8eypqxYTwoy2jVLA-5" value="" style="edgeStyle=orthogonalEdgeStyle;rounded=0;orthogonalLoop=1;jettySize=auto;html=1;" parent="1" source="q7JV8eypqxYTwoy2jVLA-2" target="q7JV8eypqxYTwoy2jVLA-4" edge="1">
          <mxGeometry relative="1" as="geometry" />
        </mxCell>
        <mxCell id="q7JV8eypqxYTwoy2jVLA-7" value="" style="edgeStyle=orthogonalEdgeStyle;rounded=0;orthogonalLoop=1;jettySize=auto;html=1;" parent="1" source="q7JV8eypqxYTwoy2jVLA-2" target="q7JV8eypqxYTwoy2jVLA-6" edge="1">
          <mxGeometry relative="1" as="geometry" />
        </mxCell>
        <mxCell id="q7JV8eypqxYTwoy2jVLA-2" value="settings in localstorage?" style="strokeWidth=2;html=1;shape=mxgraph.flowchart.decision;whiteSpace=wrap;" parent="1" vertex="1">
          <mxGeometry x="20" y="100" width="100" height="100" as="geometry" />
        </mxCell>
        <mxCell id="q7JV8eypqxYTwoy2jVLA-3" value="" style="endArrow=classic;html=1;exitX=0.5;exitY=1;exitDx=0;exitDy=0;entryX=0.5;entryY=0;entryDx=0;entryDy=0;entryPerimeter=0;" parent="1" source="q7JV8eypqxYTwoy2jVLA-1" target="q7JV8eypqxYTwoy2jVLA-2" edge="1">
          <mxGeometry width="50" height="50" relative="1" as="geometry">
            <mxPoint x="260" y="270" as="sourcePoint" />
            <mxPoint x="310" y="220" as="targetPoint" />
          </mxGeometry>
        </mxCell>
        <mxCell id="q7JV8eypqxYTwoy2jVLA-4" value="load default settings and save settings to local storage" style="whiteSpace=wrap;html=1;strokeWidth=2;" parent="1" vertex="1">
          <mxGeometry x="150" y="120" width="120" height="60" as="geometry" />
        </mxCell>
        <mxCell id="q7JV8eypqxYTwoy2jVLA-6" value="JSON parse settings string and store settings in this.settings" style="whiteSpace=wrap;html=1;strokeWidth=2;" parent="1" vertex="1">
          <mxGeometry x="10" y="230" width="120" height="60" as="geometry" />
        </mxCell>
        <mxCell id="q7JV8eypqxYTwoy2jVLA-10" value="" style="edgeStyle=orthogonalEdgeStyle;rounded=0;orthogonalLoop=1;jettySize=auto;html=1;" parent="1" source="q7JV8eypqxYTwoy2jVLA-8" target="q7JV8eypqxYTwoy2jVLA-9" edge="1">
          <mxGeometry relative="1" as="geometry" />
        </mxCell>
        <mxCell id="q7JV8eypqxYTwoy2jVLA-8" value="request channels" style="whiteSpace=wrap;html=1;aspect=fixed;" parent="1" vertex="1">
          <mxGeometry x="434" y="230" width="80" height="80" as="geometry" />
        </mxCell>
        <mxCell id="q7JV8eypqxYTwoy2jVLA-12" value="" style="edgeStyle=orthogonalEdgeStyle;rounded=0;orthogonalLoop=1;jettySize=auto;html=1;" parent="1" source="q7JV8eypqxYTwoy2jVLA-9" target="q7JV8eypqxYTwoy2jVLA-11" edge="1">
          <mxGeometry relative="1" as="geometry" />
        </mxCell>
        <mxCell id="q7JV8eypqxYTwoy2jVLA-14" value="" style="edgeStyle=orthogonalEdgeStyle;rounded=0;orthogonalLoop=1;jettySize=auto;html=1;" parent="1" source="q7JV8eypqxYTwoy2jVLA-9" target="q7JV8eypqxYTwoy2jVLA-13" edge="1">
          <mxGeometry relative="1" as="geometry" />
        </mxCell>
        <mxCell id="q7JV8eypqxYTwoy2jVLA-9" value="status 200?" style="rhombus;whiteSpace=wrap;html=1;" parent="1" vertex="1">
          <mxGeometry x="434" y="330" width="80" height="80" as="geometry" />
        </mxCell>
        <mxCell id="q7JV8eypqxYTwoy2jVLA-11" value="do nothing" style="whiteSpace=wrap;html=1;" parent="1" vertex="1">
          <mxGeometry x="550" y="340" width="120" height="60" as="geometry" />
        </mxCell>
        <mxCell id="q7JV8eypqxYTwoy2jVLA-16" value="" style="edgeStyle=orthogonalEdgeStyle;rounded=0;orthogonalLoop=1;jettySize=auto;html=1;" parent="1" source="q7JV8eypqxYTwoy2jVLA-13" target="q7JV8eypqxYTwoy2jVLA-15" edge="1">
          <mxGeometry relative="1" as="geometry" />
        </mxCell>
        <mxCell id="q7JV8eypqxYTwoy2jVLA-13" value="parse response data as JSON" style="whiteSpace=wrap;html=1;" parent="1" vertex="1">
          <mxGeometry x="414" y="440" width="120" height="60" as="geometry" />
        </mxCell>
        <mxCell id="q7JV8eypqxYTwoy2jVLA-18" value="" style="edgeStyle=orthogonalEdgeStyle;rounded=0;orthogonalLoop=1;jettySize=auto;html=1;" parent="1" source="q7JV8eypqxYTwoy2jVLA-15" target="q7JV8eypqxYTwoy2jVLA-17" edge="1">
          <mxGeometry relative="1" as="geometry" />
        </mxCell>
        <mxCell id="q7JV8eypqxYTwoy2jVLA-15" value="for every channel in response data" style="whiteSpace=wrap;html=1;" parent="1" vertex="1">
          <mxGeometry x="414" y="520" width="120" height="60" as="geometry" />
        </mxCell>
        <mxCell id="q7JV8eypqxYTwoy2jVLA-22" value="" style="edgeStyle=orthogonalEdgeStyle;rounded=0;orthogonalLoop=1;jettySize=auto;html=1;" parent="1" source="q7JV8eypqxYTwoy2jVLA-17" target="q7JV8eypqxYTwoy2jVLA-21" edge="1">
          <mxGeometry relative="1" as="geometry" />
        </mxCell>
        <mxCell id="q7JV8eypqxYTwoy2jVLA-17" value="create option element with the channels name as innerHTML and the channels API id as id" style="whiteSpace=wrap;html=1;" parent="1" vertex="1">
          <mxGeometry x="414" y="610" width="120" height="70" as="geometry" />
        </mxCell>
        <mxCell id="q7JV8eypqxYTwoy2jVLA-24" value="" style="edgeStyle=orthogonalEdgeStyle;rounded=0;orthogonalLoop=1;jettySize=auto;html=1;" parent="1" source="q7JV8eypqxYTwoy2jVLA-21" target="q7JV8eypqxYTwoy2jVLA-23" edge="1">
          <mxGeometry relative="1" as="geometry" />
        </mxCell>
        <mxCell id="q7JV8eypqxYTwoy2jVLA-21" value="append the option to select tag with id &quot;playchannel&quot;" style="whiteSpace=wrap;html=1;" parent="1" vertex="1">
          <mxGeometry x="410" y="690" width="120" height="60" as="geometry" />
        </mxCell>
        <mxCell id="q7JV8eypqxYTwoy2jVLA-26" value="" style="edgeStyle=orthogonalEdgeStyle;rounded=0;orthogonalLoop=1;jettySize=auto;html=1;" parent="1" source="q7JV8eypqxYTwoy2jVLA-23" target="q7JV8eypqxYTwoy2jVLA-25" edge="1">
          <mxGeometry relative="1" as="geometry" />
        </mxCell>
        <mxCell id="q7JV8eypqxYTwoy2jVLA-23" value="create an li tag and an a tag" style="whiteSpace=wrap;html=1;" parent="1" vertex="1">
          <mxGeometry x="410" y="760" width="120" height="60" as="geometry" />
        </mxCell>
        <mxCell id="q7JV8eypqxYTwoy2jVLA-28" value="" style="edgeStyle=orthogonalEdgeStyle;rounded=0;orthogonalLoop=1;jettySize=auto;html=1;" parent="1" source="q7JV8eypqxYTwoy2jVLA-25" target="q7JV8eypqxYTwoy2jVLA-27" edge="1">
          <mxGeometry relative="1" as="geometry" />
        </mxCell>
        <mxCell id="q7JV8eypqxYTwoy2jVLA-25" value="add channel name as innerHTML, title as taglien from channel to the a tag" style="whiteSpace=wrap;html=1;" parent="1" vertex="1">
          <mxGeometry x="410" y="840" width="120" height="60" as="geometry" />
        </mxCell>
        <mxCell id="q7JV8eypqxYTwoy2jVLA-42" value="" style="edgeStyle=orthogonalEdgeStyle;rounded=0;orthogonalLoop=1;jettySize=auto;html=1;" parent="1" source="q7JV8eypqxYTwoy2jVLA-27" target="q7JV8eypqxYTwoy2jVLA-41" edge="1">
          <mxGeometry relative="1" as="geometry" />
        </mxCell>
        <mxCell id="q7JV8eypqxYTwoy2jVLA-27" value="append the a tago to the li tag and the li tag to ul tag with id &quot;mainnavlist&quot;" style="whiteSpace=wrap;html=1;" parent="1" vertex="1">
          <mxGeometry x="410" y="910" width="120" height="60" as="geometry" />
        </mxCell>
        <mxCell id="q7JV8eypqxYTwoy2jVLA-41" value="more channels?" style="rhombus;whiteSpace=wrap;html=1;" parent="1" vertex="1">
          <mxGeometry x="415" y="1010" width="110" height="110" as="geometry" />
        </mxCell>
        <mxCell id="q7JV8eypqxYTwoy2jVLA-56" value="yes" style="text;html=1;strokeColor=none;fillColor=none;align=center;verticalAlign=middle;whiteSpace=wrap;rounded=0;" parent="1" vertex="1">
          <mxGeometry x="70" y="200" width="40" height="20" as="geometry" />
        </mxCell>
        <mxCell id="q7JV8eypqxYTwoy2jVLA-57" value="no" style="text;html=1;strokeColor=none;fillColor=none;align=center;verticalAlign=middle;whiteSpace=wrap;rounded=0;" parent="1" vertex="1">
          <mxGeometry x="110" y="130" width="40" height="20" as="geometry" />
        </mxCell>
        <mxCell id="q7JV8eypqxYTwoy2jVLA-58" value="no" style="text;html=1;strokeColor=none;fillColor=none;align=center;verticalAlign=middle;whiteSpace=wrap;rounded=0;" parent="1" vertex="1">
          <mxGeometry x="514" y="350" width="40" height="20" as="geometry" />
        </mxCell>
        <mxCell id="q7JV8eypqxYTwoy2jVLA-59" value="yes" style="text;html=1;strokeColor=none;fillColor=none;align=center;verticalAlign=middle;whiteSpace=wrap;rounded=0;" parent="1" vertex="1">
          <mxGeometry x="474" y="410" width="40" height="20" as="geometry" />
        </mxCell>
        <mxCell id="q7JV8eypqxYTwoy2jVLA-62" value="" style="edgeStyle=elbowEdgeStyle;elbow=horizontal;endArrow=classic;html=1;exitX=0;exitY=0.5;exitDx=0;exitDy=0;entryX=0;entryY=0.5;entryDx=0;entryDy=0;" parent="1" source="q7JV8eypqxYTwoy2jVLA-41" target="q7JV8eypqxYTwoy2jVLA-13" edge="1">
          <mxGeometry width="50" height="50" relative="1" as="geometry">
            <mxPoint x="700" y="800" as="sourcePoint" />
            <mxPoint x="750" y="750" as="targetPoint" />
            <Array as="points">
              <mxPoint x="350" y="770" />
            </Array>
          </mxGeometry>
        </mxCell>
        <mxCell id="q7JV8eypqxYTwoy2jVLA-63" value="yes" style="text;html=1;strokeColor=none;fillColor=none;align=center;verticalAlign=middle;whiteSpace=wrap;rounded=0;" parent="1" vertex="1">
          <mxGeometry x="360" y="1040" width="40" height="20" as="geometry" />
        </mxCell>
        <mxCell id="q7JV8eypqxYTwoy2jVLA-69" value="" style="edgeStyle=orthogonalEdgeStyle;rounded=0;orthogonalLoop=1;jettySize=auto;html=1;" parent="1" source="q7JV8eypqxYTwoy2jVLA-64" target="q7JV8eypqxYTwoy2jVLA-68" edge="1">
          <mxGeometry relative="1" as="geometry" />
        </mxCell>
        <mxCell id="q7JV8eypqxYTwoy2jVLA-64" value="on page load" style="rounded=0;whiteSpace=wrap;html=1;" parent="1" vertex="1">
          <mxGeometry x="290" y="10" width="120" height="60" as="geometry" />
        </mxCell>
        <mxCell id="q7JV8eypqxYTwoy2jVLA-67" value="" style="edgeStyle=orthogonalEdgeStyle;rounded=0;orthogonalLoop=1;jettySize=auto;html=1;" parent="1" source="q7JV8eypqxYTwoy2jVLA-65" target="q7JV8eypqxYTwoy2jVLA-66" edge="1">
          <mxGeometry relative="1" as="geometry" />
        </mxCell>
        <mxCell id="q7JV8eypqxYTwoy2jVLA-65" value="on numrows change" style="rounded=0;whiteSpace=wrap;html=1;" parent="1" vertex="1">
          <mxGeometry x="540" y="10" width="120" height="60" as="geometry" />
        </mxCell>
        <mxCell id="q7JV8eypqxYTwoy2jVLA-66" value="save new numrow value to settings" style="whiteSpace=wrap;html=1;rounded=0;" parent="1" vertex="1">
          <mxGeometry x="540" y="130" width="120" height="60" as="geometry" />
        </mxCell>
        <mxCell id="q7JV8eypqxYTwoy2jVLA-68" value="set saved value of numRows to html element with id numrows" style="whiteSpace=wrap;html=1;rounded=0;" parent="1" vertex="1">
          <mxGeometry x="290" y="130" width="120" height="60" as="geometry" />
        </mxCell>
        <mxCell id="q7JV8eypqxYTwoy2jVLA-70" value="" style="edgeStyle=segmentEdgeStyle;endArrow=classic;html=1;exitX=0.5;exitY=1;exitDx=0;exitDy=0;entryX=0;entryY=0.5;entryDx=0;entryDy=0;" parent="1" source="q7JV8eypqxYTwoy2jVLA-68" target="q7JV8eypqxYTwoy2jVLA-8" edge="1">
          <mxGeometry width="50" height="50" relative="1" as="geometry">
            <mxPoint x="350" y="210" as="sourcePoint" />
            <mxPoint x="400" y="280" as="targetPoint" />
            <Array as="points">
              <mxPoint x="350" y="270" />
            </Array>
          </mxGeometry>
        </mxCell>
        <mxCell id="q7JV8eypqxYTwoy2jVLA-71" value="" style="edgeStyle=segmentEdgeStyle;endArrow=classic;html=1;entryX=1;entryY=0.5;entryDx=0;entryDy=0;exitX=0.5;exitY=1;exitDx=0;exitDy=0;" parent="1" source="q7JV8eypqxYTwoy2jVLA-66" target="q7JV8eypqxYTwoy2jVLA-8" edge="1">
          <mxGeometry width="50" height="50" relative="1" as="geometry">
            <mxPoint x="610" y="230" as="sourcePoint" />
            <mxPoint x="650" y="310" as="targetPoint" />
            <Array as="points">
              <mxPoint x="600" y="270" />
            </Array>
          </mxGeometry>
        </mxCell>
      </root>
    </mxGraphModel>
  </diagram>
</mxfile>
